<svg xmlns="http://www.w3.org/2000/svg" width="1080" height="680" viewBox="0 0 1080 680">
<rect width="100%" height="100%" fill="#ffffff"/>
<style>text{font-family:Arial,"Noto Sans CJK SC","Microsoft YaHei",sans-serif;fill:#23313d}.t{font-size:27px;font-weight:700}.s{font-size:16px;fill:#5d6b76}.a{font-size:15px}.m{font-size:12px;fill:#64727d}</style>
<text class="t" x="54" y="44">E65｜正式微调后的 GEARS–scGPT 分歧</text>
<text class="s" x="54" y="72">Adamson 固定 24 个未见基因；横轴只由两个预测 effect 计算，纵轴只用于事后核验。</text>
<line x1="108" y1="92" x2="108" y2="592" stroke="#71808b"/>
<line x1="108" y1="592" x2="1010" y2="592" stroke="#71808b"/>
<text class="a" x="559.0" y="646" text-anchor="middle">GEARS ensemble – scGPT disagreement (RMSE)</text>
<text class="a" transform="translate(30 342.0) rotate(-90)" text-anchor="middle">two-model mean error (RMSE)</text>
<circle cx="190.6" cy="477.8" r="5.8" fill="#427b93" opacity=".86"><title>BCL2L11+ctrl</title></circle>
<circle cx="184.6" cy="374.2" r="5.8" fill="#427b93" opacity=".86"><title>CKS1B+ctrl</title></circle>
<circle cx="549.4" cy="382.6" r="5.8" fill="#427b93" opacity=".86"><title>CLDN6+ctrl</title></circle>
<circle cx="947.8" cy="297.7" r="5.8" fill="#427b93" opacity=".86"><title>FEV+ctrl</title></circle>
<circle cx="664.1" cy="253.5" r="5.8" fill="#427b93" opacity=".86"><title>FOSB+ctrl</title></circle>
<circle cx="357.0" cy="455.4" r="5.8" fill="#427b93" opacity=".86"><title>FOXA1+ctrl</title></circle>
<circle cx="257.4" cy="535.9" r="5.8" fill="#427b93" opacity=".86"><title>FOXA3+ctrl</title></circle>
<circle cx="328.7" cy="409.3" r="5.8" fill="#427b93" opacity=".86"><title>IER5L+ctrl</title></circle>
<circle cx="170.2" cy="557.5" r="5.8" fill="#427b93" opacity=".86"><title>IGDCC3+ctrl</title></circle>
<circle cx="445.7" cy="445.7" r="5.8" fill="#427b93" opacity=".86"><title>IKZF3+ctrl</title></circle>
<circle cx="501.7" cy="356.5" r="5.8" fill="#427b93" opacity=".86"><title>JUN+ctrl</title></circle>
<circle cx="628.5" cy="464.5" r="5.8" fill="#427b93" opacity=".86"><title>MAPK1+ctrl</title></circle>
<circle cx="202.1" cy="501.0" r="5.8" fill="#427b93" opacity=".86"><title>MEIS1+ctrl</title></circle>
<circle cx="274.9" cy="402.0" r="5.8" fill="#427b93" opacity=".86"><title>MIDN+ctrl</title></circle>
<circle cx="342.5" cy="516.9" r="5.8" fill="#427b93" opacity=".86"><title>OSR2+ctrl</title></circle>
<circle cx="331.8" cy="505.6" r="5.8" fill="#427b93" opacity=".86"><title>POU3F2+ctrl</title></circle>
<circle cx="509.0" cy="126.5" r="5.8" fill="#427b93" opacity=".86"><title>PRDM1+ctrl</title></circle>
<circle cx="217.1" cy="512.3" r="5.8" fill="#427b93" opacity=".86"><title>PTPN12+ctrl</title></circle>
<circle cx="350.3" cy="419.0" r="5.8" fill="#427b93" opacity=".86"><title>PTPN13+ctrl</title></circle>
<circle cx="239.9" cy="441.1" r="5.8" fill="#427b93" opacity=".86"><title>S1PR2+ctrl</title></circle>
<circle cx="314.2" cy="425.5" r="5.8" fill="#427b93" opacity=".86"><title>SNAI1+ctrl</title></circle>
<circle cx="561.8" cy="345.8" r="5.8" fill="#427b93" opacity=".86"><title>SPI1+ctrl</title></circle>
<circle cx="313.7" cy="525.0" r="5.8" fill="#427b93" opacity=".86"><title>STIL+ctrl</title></circle>
<circle cx="303.5" cy="536.6" r="5.8" fill="#427b93" opacity=".86"><title>TSC22D1+ctrl</title></circle>
</svg>