<?xml version="1.0" encoding="utf-8" standalone="no"?>
<!DOCTYPE svg PUBLIC "-//W3C//DTD SVG 1.1//EN"
  "http://www.w3.org/Graphics/SVG/1.1/DTD/svg11.dtd">
<svg xmlns:xlink="http://www.w3.org/1999/xlink" width="770.4pt" height="468pt" viewBox="0 0 770.4 468" xmlns="http://www.w3.org/2000/svg" version="1.1">
 <metadata>
  <rdf:RDF xmlns:dc="http://purl.org/dc/elements/1.1/" xmlns:cc="http://creativecommons.org/ns#" xmlns:rdf="http://www.w3.org/1999/02/22-rdf-syntax-ns#">
   <cc:Work>
    <dc:type rdf:resource="http://purl.org/dc/dcmitype/StillImage"/>
    <dc:date>2026-10-08T11:34:58.177540</dc:date>
    <dc:format>image/svg+xml</dc:format>
    <dc:creator>
     <cc:Agent>
      <dc:title>Matplotlib v3.10.8, https://matplotlib.org/</dc:title>
     </cc:Agent>
    </dc:creator>
   </cc:Work>
  </rdf:RDF>
 </metadata>
 <defs>
  <style type="text/css">*{stroke-linejoin: round; stroke-linecap: butt}</style>
 </defs>
 <g id="figure_1">
  <g id="patch_1">
   <path d="M 0 468
L 770.4 468
L 770.4 0
L 0 0
z
" style="fill: #ffffff"/>
  </g>
  <g id="axes_1">
   <g id="patch_2">
    <path d="M 84.744 397.8
L 747.288 397.8
L 747.288 145.08
L 84.744 145.08
z
" style="fill: #ffffff"/>
   </g>
   <g id="matplotlib.axis_1">
    <g id="xtick_1">
     <g id="line2d_1">
      <defs>
       <path id="m499ce82389" d="M 0 0
L 0 3.5
" style="stroke: #000000; stroke-width: 0.8"/>
      </defs>
      <g>
       <use xlink:href="#m499ce82389" x="243.926649" y="397.8" style="stroke: #000000; stroke-width: 0.8"/>
      </g>
     </g>
     <g id="text_1">
      <!-- Exphormer → GAT -->
      <g transform="translate(194.624306 413.158281) scale(0.11 -0.11)">
       <defs>
        <path id="DejaVuSans-45" d="M 628 4666
L 3578 4666
L 3578 4134
L 1259 4134
L 1259 2753
L 3481 2753
L 3481 2222
L 1259 2222
L 1259 531
L 3634 531
L 3634 0
L 628 0
L 628 4666
z
" transform="scale(0.015625)"/>
        <path id="DejaVuSans-78" d="M 3513 3500
L 2247 1797
L 3578 0
L 2900 0
L 1881 1375
L 863 0
L 184 0
L 1544 1831
L 300 3500
L 978 3500
L 1906 2253
L 2834 3500
L 3513 3500
z
" transform="scale(0.015625)"/>
        <path id="DejaVuSans-70" d="M 1159 525
L 1159 -1331
L 581 -1331
L 581 3500
L 1159 3500
L 1159 2969
Q 1341 3281 1617 3432
Q 1894 3584 2278 3584
Q 2916 3584 3314 3078
Q 3713 2572 3713 1747
Q 3713 922 3314 415
Q 2916 -91 2278 -91
Q 1894 -91 1617 61
Q 1341 213 1159 525
z
M 3116 1747
Q 3116 2381 2855 2742
Q 2594 3103 2138 3103
Q 1681 3103 1420 2742
Q 1159 2381 1159 1747
Q 1159 1113 1420 752
Q 1681 391 2138 391
Q 2594 391 2855 752
Q 3116 1113 3116 1747
z
" transform="scale(0.015625)"/>
        <path id="DejaVuSans-68" d="M 3513 2113
L 3513 0
L 2938 0
L 2938 2094
Q 2938 2591 2744 2837
Q 2550 3084 2163 3084
Q 1697 3084 1428 2787
Q 1159 2491 1159 1978
L 1159 0
L 581 0
L 581 4863
L 1159 4863
L 1159 2956
Q 1366 3272 1645 3428
Q 1925 3584 2291 3584
Q 2894 3584 3203 3211
Q 3513 2838 3513 2113
z
" transform="scale(0.015625)"/>
        <path id="DejaVuSans-6f" d="M 1959 3097
Q 1497 3097 1228 2736
Q 959 2375 959 1747
Q 959 1119 1226 758
Q 1494 397 1959 397
Q 2419 397 2687 759
Q 2956 1122 2956 1747
Q 2956 2369 2687 2733
Q 2419 3097 1959 3097
z
M 1959 3584
Q 2709 3584 3137 3096
Q 3566 2609 3566 1747
Q 3566 888 3137 398
Q 2709 -91 1959 -91
Q 1206 -91 779 398
Q 353 888 353 1747
Q 353 2609 779 3096
Q 1206 3584 1959 3584
z
" transform="scale(0.015625)"/>
        <path id="DejaVuSans-72" d="M 2631 2963
Q 2534 3019 2420 3045
Q 2306 3072 2169 3072
Q 1681 3072 1420 2755
Q 1159 2438 1159 1844
L 1159 0
L 581 0
L 581 3500
L 1159 3500
L 1159 2956
Q 1341 3275 1631 3429
Q 1922 3584 2338 3584
Q 2397 3584 2469 3576
Q 2541 3569 2628 3553
L 2631 2963
z
" transform="scale(0.015625)"/>
        <path id="DejaVuSans-6d" d="M 3328 2828
Q 3544 3216 3844 3400
Q 4144 3584 4550 3584
Q 5097 3584 5394 3201
Q 5691 2819 5691 2113
L 5691 0
L 5113 0
L 5113 2094
Q 5113 2597 4934 2840
Q 4756 3084 4391 3084
Q 3944 3084 3684 2787
Q 3425 2491 3425 1978
L 3425 0
L 2847 0
L 2847 2094
Q 2847 2600 2669 2842
Q 2491 3084 2119 3084
Q 1678 3084 1418 2786
Q 1159 2488 1159 1978
L 1159 0
L 581 0
L 581 3500
L 1159 3500
L 1159 2956
Q 1356 3278 1631 3431
Q 1906 3584 2284 3584
Q 2666 3584 2933 3390
Q 3200 3197 3328 2828
z
" transform="scale(0.015625)"/>
        <path id="DejaVuSans-65" d="M 3597 1894
L 3597 1613
L 953 1613
Q 991 1019 1311 708
Q 1631 397 2203 397
Q 2534 397 2845 478
Q 3156 559 3463 722
L 3463 178
Q 3153 47 2828 -22
Q 2503 -91 2169 -91
Q 1331 -91 842 396
Q 353 884 353 1716
Q 353 2575 817 3079
Q 1281 3584 2069 3584
Q 2775 3584 3186 3129
Q 3597 2675 3597 1894
z
M 3022 2063
Q 3016 2534 2758 2815
Q 2500 3097 2075 3097
Q 1594 3097 1305 2825
Q 1016 2553 972 2059
L 3022 2063
z
" transform="scale(0.015625)"/>
        <path id="DejaVuSans-20" transform="scale(0.015625)"/>
        <path id="DejaVuSans-2192" d="M 5050 2147
L 5050 1866
L 3822 638
L 3447 1013
L 4175 1741
L 366 1741
L 366 2272
L 4175 2272
L 3447 3000
L 3822 3375
L 5050 2147
z
" transform="scale(0.015625)"/>
        <path id="DejaVuSans-47" d="M 3809 666
L 3809 1919
L 2778 1919
L 2778 2438
L 4434 2438
L 4434 434
Q 4069 175 3628 42
Q 3188 -91 2688 -91
Q 1594 -91 976 548
Q 359 1188 359 2328
Q 359 3472 976 4111
Q 1594 4750 2688 4750
Q 3144 4750 3555 4637
Q 3966 4525 4313 4306
L 4313 3634
Q 3963 3931 3569 4081
Q 3175 4231 2741 4231
Q 1884 4231 1454 3753
Q 1025 3275 1025 2328
Q 1025 1384 1454 906
Q 1884 428 2741 428
Q 3075 428 3337 486
Q 3600 544 3809 666
z
" transform="scale(0.015625)"/>
        <path id="DejaVuSans-41" d="M 2188 4044
L 1331 1722
L 3047 1722
L 2188 4044
z
M 1831 4666
L 2547 4666
L 4325 0
L 3669 0
L 3244 1197
L 1141 1197
L 716 0
L 50 0
L 1831 4666
z
" transform="scale(0.015625)"/>
        <path id="DejaVuSans-54" d="M -19 4666
L 3928 4666
L 3928 4134
L 2272 4134
L 2272 0
L 1638 0
L 1638 4134
L -19 4134
L -19 4666
z
" transform="scale(0.015625)"/>
       </defs>
       <use xlink:href="#DejaVuSans-45"/>
       <use xlink:href="#DejaVuSans-78" transform="translate(63.183594 0)"/>
       <use xlink:href="#DejaVuSans-70" transform="translate(122.363281 0)"/>
       <use xlink:href="#DejaVuSans-68" transform="translate(185.839844 0)"/>
       <use xlink:href="#DejaVuSans-6f" transform="translate(249.21875 0)"/>
       <use xlink:href="#DejaVuSans-72" transform="translate(310.400391 0)"/>
       <use xlink:href="#DejaVuSans-6d" transform="translate(349.763672 0)"/>
       <use xlink:href="#DejaVuSans-65" transform="translate(447.175781 0)"/>
       <use xlink:href="#DejaVuSans-72" transform="translate(508.699219 0)"/>
       <use xlink:href="#DejaVuSans-20" transform="translate(549.8125 0)"/>
       <use xlink:href="#DejaVuSans-2192" transform="translate(581.599609 0)"/>
       <use xlink:href="#DejaVuSans-20" transform="translate(665.388672 0)"/>
       <use xlink:href="#DejaVuSans-47" transform="translate(697.175781 0)"/>
       <use xlink:href="#DejaVuSans-41" transform="translate(774.666016 0)"/>
       <use xlink:href="#DejaVuSans-54" transform="translate(835.324219 0)"/>
      </g>
     </g>
    </g>
    <g id="xtick_2">
     <g id="line2d_2">
      <g>
       <use xlink:href="#m499ce82389" x="588.105351" y="397.8" style="stroke: #000000; stroke-width: 0.8"/>
      </g>
     </g>
     <g id="text_2">
      <!-- GAT → Exphormer -->
      <g transform="translate(538.803007 413.158281) scale(0.11 -0.11)">
       <use xlink:href="#DejaVuSans-47"/>
       <use xlink:href="#DejaVuSans-41" transform="translate(77.490234 0)"/>
       <use xlink:href="#DejaVuSans-54" transform="translate(138.148438 0)"/>
       <use xlink:href="#DejaVuSans-20" transform="translate(199.232422 0)"/>
       <use xlink:href="#DejaVuSans-2192" transform="translate(231.019531 0)"/>
       <use xlink:href="#DejaVuSans-20" transform="translate(314.808594 0)"/>
       <use xlink:href="#DejaVuSans-45" transform="translate(346.595703 0)"/>
       <use xlink:href="#DejaVuSans-78" transform="translate(409.779297 0)"/>
       <use xlink:href="#DejaVuSans-70" transform="translate(468.958984 0)"/>
       <use xlink:href="#DejaVuSans-68" transform="translate(532.435547 0)"/>
       <use xlink:href="#DejaVuSans-6f" transform="translate(595.814453 0)"/>
       <use xlink:href="#DejaVuSans-72" transform="translate(656.996094 0)"/>
       <use xlink:href="#DejaVuSans-6d" transform="translate(696.359375 0)"/>
       <use xlink:href="#DejaVuSans-65" transform="translate(793.771484 0)"/>
       <use xlink:href="#DejaVuSans-72" transform="translate(855.294922 0)"/>
      </g>
     </g>
    </g>
   </g>
   <g id="matplotlib.axis_2">
    <g id="ytick_1">
     <g id="line2d_3">
      <path d="M 84.744 397.8
L 747.288 397.8
" clip-path="url(#p330dcc7023)" style="fill: none; stroke: #b0b0b0; stroke-opacity: 0.13; stroke-width: 0.8; stroke-linecap: square"/>
     </g>
     <g id="line2d_4">
      <defs>
       <path id="md9cb121c66" d="M 0 0
L -3.5 0
" style="stroke: #000000; stroke-width: 0.8"/>
      </defs>
      <g>
       <use xlink:href="#md9cb121c66" x="84.744" y="397.8" style="stroke: #000000; stroke-width: 0.8"/>
      </g>
     </g>
     <g id="text_3">
      <!-- 0.0 -->
      <g transform="translate(60.250563 401.979141) scale(0.11 -0.11)">
       <defs>
        <path id="DejaVuSans-30" d="M 2034 4250
Q 1547 4250 1301 3770
Q 1056 3291 1056 2328
Q 1056 1369 1301 889
Q 1547 409 2034 409
Q 2525 409 2770 889
Q 3016 1369 3016 2328
Q 3016 3291 2770 3770
Q 2525 4250 2034 4250
z
M 2034 4750
Q 2819 4750 3233 4129
Q 3647 3509 3647 2328
Q 3647 1150 3233 529
Q 2819 -91 2034 -91
Q 1250 -91 836 529
Q 422 1150 422 2328
Q 422 3509 836 4129
Q 1250 4750 2034 4750
z
" transform="scale(0.015625)"/>
        <path id="DejaVuSans-2e" d="M 684 794
L 1344 794
L 1344 0
L 684 0
L 684 794
z
" transform="scale(0.015625)"/>
       </defs>
       <use xlink:href="#DejaVuSans-30"/>
       <use xlink:href="#DejaVuSans-2e" transform="translate(63.623047 0)"/>
       <use xlink:href="#DejaVuSans-30" transform="translate(95.410156 0)"/>
      </g>
     </g>
    </g>
    <g id="ytick_2">
     <g id="line2d_5">
      <path d="M 84.744 347.756436
L 747.288 347.756436
" clip-path="url(#p330dcc7023)" style="fill: none; stroke: #b0b0b0; stroke-opacity: 0.13; stroke-width: 0.8; stroke-linecap: square"/>
     </g>
     <g id="line2d_6">
      <g>
       <use xlink:href="#md9cb121c66" x="84.744" y="347.756436" style="stroke: #000000; stroke-width: 0.8"/>
      </g>
     </g>
     <g id="text_4">
      <!-- 0.2 -->
      <g transform="translate(60.250563 351.935576) scale(0.11 -0.11)">
       <defs>
        <path id="DejaVuSans-32" d="M 1228 531
L 3431 531
L 3431 0
L 469 0
L 469 531
Q 828 903 1448 1529
Q 2069 2156 2228 2338
Q 2531 2678 2651 2914
Q 2772 3150 2772 3378
Q 2772 3750 2511 3984
Q 2250 4219 1831 4219
Q 1534 4219 1204 4116
Q 875 4013 500 3803
L 500 4441
Q 881 4594 1212 4672
Q 1544 4750 1819 4750
Q 2544 4750 2975 4387
Q 3406 4025 3406 3419
Q 3406 3131 3298 2873
Q 3191 2616 2906 2266
Q 2828 2175 2409 1742
Q 1991 1309 1228 531
z
" transform="scale(0.015625)"/>
       </defs>
       <use xlink:href="#DejaVuSans-30"/>
       <use xlink:href="#DejaVuSans-2e" transform="translate(63.623047 0)"/>
       <use xlink:href="#DejaVuSans-32" transform="translate(95.410156 0)"/>
      </g>
     </g>
    </g>
    <g id="ytick_3">
     <g id="line2d_7">
      <path d="M 84.744 297.712871
L 747.288 297.712871
" clip-path="url(#p330dcc7023)" style="fill: none; stroke: #b0b0b0; stroke-opacity: 0.13; stroke-width: 0.8; stroke-linecap: square"/>
     </g>
     <g id="line2d_8">
      <g>
       <use xlink:href="#md9cb121c66" x="84.744" y="297.712871" style="stroke: #000000; stroke-width: 0.8"/>
      </g>
     </g>
     <g id="text_5">
      <!-- 0.4 -->
      <g transform="translate(60.250563 301.892012) scale(0.11 -0.11)">
       <defs>
        <path id="DejaVuSans-34" d="M 2419 4116
L 825 1625
L 2419 1625
L 2419 4116
z
M 2253 4666
L 3047 4666
L 3047 1625
L 3713 1625
L 3713 1100
L 3047 1100
L 3047 0
L 2419 0
L 2419 1100
L 313 1100
L 313 1709
L 2253 4666
z
" transform="scale(0.015625)"/>
       </defs>
       <use xlink:href="#DejaVuSans-30"/>
       <use xlink:href="#DejaVuSans-2e" transform="translate(63.623047 0)"/>
       <use xlink:href="#DejaVuSans-34" transform="translate(95.410156 0)"/>
      </g>
     </g>
    </g>
    <g id="ytick_4">
     <g id="line2d_9">
      <path d="M 84.744 247.669307
L 747.288 247.669307
" clip-path="url(#p330dcc7023)" style="fill: none; stroke: #b0b0b0; stroke-opacity: 0.13; stroke-width: 0.8; stroke-linecap: square"/>
     </g>
     <g id="line2d_10">
      <g>
       <use xlink:href="#md9cb121c66" x="84.744" y="247.669307" style="stroke: #000000; stroke-width: 0.8"/>
      </g>
     </g>
     <g id="text_6">
      <!-- 0.6 -->
      <g transform="translate(60.250563 251.848448) scale(0.11 -0.11)">
       <defs>
        <path id="DejaVuSans-36" d="M 2113 2584
Q 1688 2584 1439 2293
Q 1191 2003 1191 1497
Q 1191 994 1439 701
Q 1688 409 2113 409
Q 2538 409 2786 701
Q 3034 994 3034 1497
Q 3034 2003 2786 2293
Q 2538 2584 2113 2584
z
M 3366 4563
L 3366 3988
Q 3128 4100 2886 4159
Q 2644 4219 2406 4219
Q 1781 4219 1451 3797
Q 1122 3375 1075 2522
Q 1259 2794 1537 2939
Q 1816 3084 2150 3084
Q 2853 3084 3261 2657
Q 3669 2231 3669 1497
Q 3669 778 3244 343
Q 2819 -91 2113 -91
Q 1303 -91 875 529
Q 447 1150 447 2328
Q 447 3434 972 4092
Q 1497 4750 2381 4750
Q 2619 4750 2861 4703
Q 3103 4656 3366 4563
z
" transform="scale(0.015625)"/>
       </defs>
       <use xlink:href="#DejaVuSans-30"/>
       <use xlink:href="#DejaVuSans-2e" transform="translate(63.623047 0)"/>
       <use xlink:href="#DejaVuSans-36" transform="translate(95.410156 0)"/>
      </g>
     </g>
    </g>
    <g id="ytick_5">
     <g id="line2d_11">
      <path d="M 84.744 197.625743
L 747.288 197.625743
" clip-path="url(#p330dcc7023)" style="fill: none; stroke: #b0b0b0; stroke-opacity: 0.13; stroke-width: 0.8; stroke-linecap: square"/>
     </g>
     <g id="line2d_12">
      <g>
       <use xlink:href="#md9cb121c66" x="84.744" y="197.625743" style="stroke: #000000; stroke-width: 0.8"/>
      </g>
     </g>
     <g id="text_7">
      <!-- 0.8 -->
      <g transform="translate(60.250563 201.804883) scale(0.11 -0.11)">
       <defs>
        <path id="DejaVuSans-38" d="M 2034 2216
Q 1584 2216 1326 1975
Q 1069 1734 1069 1313
Q 1069 891 1326 650
Q 1584 409 2034 409
Q 2484 409 2743 651
Q 3003 894 3003 1313
Q 3003 1734 2745 1975
Q 2488 2216 2034 2216
z
M 1403 2484
Q 997 2584 770 2862
Q 544 3141 544 3541
Q 544 4100 942 4425
Q 1341 4750 2034 4750
Q 2731 4750 3128 4425
Q 3525 4100 3525 3541
Q 3525 3141 3298 2862
Q 3072 2584 2669 2484
Q 3125 2378 3379 2068
Q 3634 1759 3634 1313
Q 3634 634 3220 271
Q 2806 -91 2034 -91
Q 1263 -91 848 271
Q 434 634 434 1313
Q 434 1759 690 2068
Q 947 2378 1403 2484
z
M 1172 3481
Q 1172 3119 1398 2916
Q 1625 2713 2034 2713
Q 2441 2713 2670 2916
Q 2900 3119 2900 3481
Q 2900 3844 2670 4047
Q 2441 4250 2034 4250
Q 1625 4250 1398 4047
Q 1172 3844 1172 3481
z
" transform="scale(0.015625)"/>
       </defs>
       <use xlink:href="#DejaVuSans-30"/>
       <use xlink:href="#DejaVuSans-2e" transform="translate(63.623047 0)"/>
       <use xlink:href="#DejaVuSans-38" transform="translate(95.410156 0)"/>
      </g>
     </g>
    </g>
    <g id="ytick_6">
     <g id="line2d_13">
      <path d="M 84.744 147.582178
L 747.288 147.582178
" clip-path="url(#p330dcc7023)" style="fill: none; stroke: #b0b0b0; stroke-opacity: 0.13; stroke-width: 0.8; stroke-linecap: square"/>
     </g>
     <g id="line2d_14">
      <g>
       <use xlink:href="#md9cb121c66" x="84.744" y="147.582178" style="stroke: #000000; stroke-width: 0.8"/>
      </g>
     </g>
     <g id="text_8">
      <!-- 1.0 -->
      <g transform="translate(60.250563 151.761319) scale(0.11 -0.11)">
       <defs>
        <path id="DejaVuSans-31" d="M 794 531
L 1825 531
L 1825 4091
L 703 3866
L 703 4441
L 1819 4666
L 2450 4666
L 2450 531
L 3481 531
L 3481 0
L 794 0
L 794 531
z
" transform="scale(0.015625)"/>
       </defs>
       <use xlink:href="#DejaVuSans-31"/>
       <use xlink:href="#DejaVuSans-2e" transform="translate(63.623047 0)"/>
       <use xlink:href="#DejaVuSans-30" transform="translate(95.410156 0)"/>
      </g>
     </g>
    </g>
    <g id="text_9">
     <!-- Context-macro U20 -->
     <g transform="translate(53.962906 324.997969) rotate(-90) scale(0.11 -0.11)">
      <defs>
       <path id="DejaVuSans-43" d="M 4122 4306
L 4122 3641
Q 3803 3938 3442 4084
Q 3081 4231 2675 4231
Q 1875 4231 1450 3742
Q 1025 3253 1025 2328
Q 1025 1406 1450 917
Q 1875 428 2675 428
Q 3081 428 3442 575
Q 3803 722 4122 1019
L 4122 359
Q 3791 134 3420 21
Q 3050 -91 2638 -91
Q 1578 -91 968 557
Q 359 1206 359 2328
Q 359 3453 968 4101
Q 1578 4750 2638 4750
Q 3056 4750 3426 4639
Q 3797 4528 4122 4306
z
" transform="scale(0.015625)"/>
       <path id="DejaVuSans-6e" d="M 3513 2113
L 3513 0
L 2938 0
L 2938 2094
Q 2938 2591 2744 2837
Q 2550 3084 2163 3084
Q 1697 3084 1428 2787
Q 1159 2491 1159 1978
L 1159 0
L 581 0
L 581 3500
L 1159 3500
L 1159 2956
Q 1366 3272 1645 3428
Q 1925 3584 2291 3584
Q 2894 3584 3203 3211
Q 3513 2838 3513 2113
z
" transform="scale(0.015625)"/>
       <path id="DejaVuSans-74" d="M 1172 4494
L 1172 3500
L 2356 3500
L 2356 3053
L 1172 3053
L 1172 1153
Q 1172 725 1289 603
Q 1406 481 1766 481
L 2356 481
L 2356 0
L 1766 0
Q 1100 0 847 248
Q 594 497 594 1153
L 594 3053
L 172 3053
L 172 3500
L 594 3500
L 594 4494
L 1172 4494
z
" transform="scale(0.015625)"/>
       <path id="DejaVuSans-2d" d="M 313 2009
L 1997 2009
L 1997 1497
L 313 1497
L 313 2009
z
" transform="scale(0.015625)"/>
       <path id="DejaVuSans-61" d="M 2194 1759
Q 1497 1759 1228 1600
Q 959 1441 959 1056
Q 959 750 1161 570
Q 1363 391 1709 391
Q 2188 391 2477 730
Q 2766 1069 2766 1631
L 2766 1759
L 2194 1759
z
M 3341 1997
L 3341 0
L 2766 0
L 2766 531
Q 2569 213 2275 61
Q 1981 -91 1556 -91
Q 1019 -91 701 211
Q 384 513 384 1019
Q 384 1609 779 1909
Q 1175 2209 1959 2209
L 2766 2209
L 2766 2266
Q 2766 2663 2505 2880
Q 2244 3097 1772 3097
Q 1472 3097 1187 3025
Q 903 2953 641 2809
L 641 3341
Q 956 3463 1253 3523
Q 1550 3584 1831 3584
Q 2591 3584 2966 3190
Q 3341 2797 3341 1997
z
" transform="scale(0.015625)"/>
       <path id="DejaVuSans-63" d="M 3122 3366
L 3122 2828
Q 2878 2963 2633 3030
Q 2388 3097 2138 3097
Q 1578 3097 1268 2742
Q 959 2388 959 1747
Q 959 1106 1268 751
Q 1578 397 2138 397
Q 2388 397 2633 464
Q 2878 531 3122 666
L 3122 134
Q 2881 22 2623 -34
Q 2366 -91 2075 -91
Q 1284 -91 818 406
Q 353 903 353 1747
Q 353 2603 823 3093
Q 1294 3584 2113 3584
Q 2378 3584 2631 3529
Q 2884 3475 3122 3366
z
" transform="scale(0.015625)"/>
       <path id="DejaVuSans-55" d="M 556 4666
L 1191 4666
L 1191 1831
Q 1191 1081 1462 751
Q 1734 422 2344 422
Q 2950 422 3222 751
Q 3494 1081 3494 1831
L 3494 4666
L 4128 4666
L 4128 1753
Q 4128 841 3676 375
Q 3225 -91 2344 -91
Q 1459 -91 1007 375
Q 556 841 556 1753
L 556 4666
z
" transform="scale(0.015625)"/>
      </defs>
      <use xlink:href="#DejaVuSans-43"/>
      <use xlink:href="#DejaVuSans-6f" transform="translate(69.824219 0)"/>
      <use xlink:href="#DejaVuSans-6e" transform="translate(131.005859 0)"/>
      <use xlink:href="#DejaVuSans-74" transform="translate(194.384766 0)"/>
      <use xlink:href="#DejaVuSans-65" transform="translate(233.59375 0)"/>
      <use xlink:href="#DejaVuSans-78" transform="translate(293.367188 0)"/>
      <use xlink:href="#DejaVuSans-74" transform="translate(352.546875 0)"/>
      <use xlink:href="#DejaVuSans-2d" transform="translate(391.755859 0)"/>
      <use xlink:href="#DejaVuSans-6d" transform="translate(427.839844 0)"/>
      <use xlink:href="#DejaVuSans-61" transform="translate(525.251953 0)"/>
      <use xlink:href="#DejaVuSans-63" transform="translate(586.53125 0)"/>
      <use xlink:href="#DejaVuSans-72" transform="translate(641.511719 0)"/>
      <use xlink:href="#DejaVuSans-6f" transform="translate(680.375 0)"/>
      <use xlink:href="#DejaVuSans-20" transform="translate(741.556641 0)"/>
      <use xlink:href="#DejaVuSans-55" transform="translate(773.34375 0)"/>
      <use xlink:href="#DejaVuSans-32" transform="translate(846.537109 0)"/>
      <use xlink:href="#DejaVuSans-30" transform="translate(910.160156 0)"/>
     </g>
    </g>
   </g>
   <g id="patch_3">
    <path d="M 114.859636 397.8
L 176.811803 397.8
L 176.811803 253.306479
L 114.859636 253.306479
z
" clip-path="url(#p330dcc7023)" style="fill: #81909a"/>
   </g>
   <g id="patch_4">
    <path d="M 459.038338 397.8
L 520.990504 397.8
L 520.990504 258.51011
L 459.038338 258.51011
z
" clip-path="url(#p330dcc7023)" style="fill: #81909a"/>
   </g>
   <g id="patch_5">
    <path d="M 180.25359 397.8
L 242.205756 397.8
L 242.205756 210.435
L 180.25359 210.435
z
" clip-path="url(#p330dcc7023)" style="fill: #d7924b"/>
   </g>
   <g id="patch_6">
    <path d="M 524.432291 397.8
L 586.384457 397.8
L 586.384457 211.074278
L 524.432291 211.074278
z
" clip-path="url(#p330dcc7023)" style="fill: #d7924b"/>
   </g>
   <g id="patch_7">
    <path d="M 245.647543 397.8
L 307.599709 397.8
L 307.599709 202.648271
L 245.647543 202.648271
z
" clip-path="url(#p330dcc7023)" style="fill: #3e78b0"/>
   </g>
   <g id="patch_8">
    <path d="M 589.826244 397.8
L 651.77841 397.8
L 651.77841 201.123385
L 589.826244 201.123385
z
" clip-path="url(#p330dcc7023)" style="fill: #3e78b0"/>
   </g>
   <g id="patch_9">
    <path d="M 311.041496 397.8
L 372.993662 397.8
L 372.993662 214.529085
L 311.041496 214.529085
z
" clip-path="url(#p330dcc7023)" style="fill: #a59bc3"/>
   </g>
   <g id="patch_10">
    <path d="M 655.220197 397.8
L 717.172364 397.8
L 717.172364 216.269631
L 655.220197 216.269631
z
" clip-path="url(#p330dcc7023)" style="fill: #a59bc3"/>
   </g>
   <g id="patch_11">
    <path d="M 84.744 397.8
L 84.744 145.08
" style="fill: none; stroke: #000000; stroke-width: 0.8; stroke-linejoin: miter; stroke-linecap: square"/>
   </g>
   <g id="patch_12">
    <path d="M 84.744 397.8
L 747.288 397.8
" style="fill: none; stroke: #000000; stroke-width: 0.8; stroke-linejoin: miter; stroke-linecap: square"/>
   </g>
   <g id="text_10">
    <!-- 0.577 -->
    <g transform="translate(130.090251 247.018823) scale(0.11 -0.11)">
     <defs>
      <path id="DejaVuSans-35" d="M 691 4666
L 3169 4666
L 3169 4134
L 1269 4134
L 1269 2991
Q 1406 3038 1543 3061
Q 1681 3084 1819 3084
Q 2600 3084 3056 2656
Q 3513 2228 3513 1497
Q 3513 744 3044 326
Q 2575 -91 1722 -91
Q 1428 -91 1123 -41
Q 819 9 494 109
L 494 744
Q 775 591 1075 516
Q 1375 441 1709 441
Q 2250 441 2565 725
Q 2881 1009 2881 1497
Q 2881 1984 2565 2268
Q 2250 2553 1709 2553
Q 1456 2553 1204 2497
Q 953 2441 691 2322
L 691 4666
z
" transform="scale(0.015625)"/>
      <path id="DejaVuSans-37" d="M 525 4666
L 3525 4666
L 3525 4397
L 1831 0
L 1172 0
L 2766 4134
L 525 4134
L 525 4666
z
" transform="scale(0.015625)"/>
     </defs>
     <use xlink:href="#DejaVuSans-30"/>
     <use xlink:href="#DejaVuSans-2e" transform="translate(63.623047 0)"/>
     <use xlink:href="#DejaVuSans-35" transform="translate(95.410156 0)"/>
     <use xlink:href="#DejaVuSans-37" transform="translate(159.033203 0)"/>
     <use xlink:href="#DejaVuSans-37" transform="translate(222.65625 0)"/>
    </g>
   </g>
   <g id="text_11">
    <!-- 0.557 -->
    <g transform="translate(474.268952 252.222454) scale(0.11 -0.11)">
     <use xlink:href="#DejaVuSans-30"/>
     <use xlink:href="#DejaVuSans-2e" transform="translate(63.623047 0)"/>
     <use xlink:href="#DejaVuSans-35" transform="translate(95.410156 0)"/>
     <use xlink:href="#DejaVuSans-35" transform="translate(159.033203 0)"/>
     <use xlink:href="#DejaVuSans-37" transform="translate(222.65625 0)"/>
    </g>
   </g>
   <g id="text_12">
    <!-- 0.749 -->
    <g transform="translate(195.484204 204.147344) scale(0.11 -0.11)">
     <defs>
      <path id="DejaVuSans-39" d="M 703 97
L 703 672
Q 941 559 1184 500
Q 1428 441 1663 441
Q 2288 441 2617 861
Q 2947 1281 2994 2138
Q 2813 1869 2534 1725
Q 2256 1581 1919 1581
Q 1219 1581 811 2004
Q 403 2428 403 3163
Q 403 3881 828 4315
Q 1253 4750 1959 4750
Q 2769 4750 3195 4129
Q 3622 3509 3622 2328
Q 3622 1225 3098 567
Q 2575 -91 1691 -91
Q 1453 -91 1209 -44
Q 966 3 703 97
z
M 1959 2075
Q 2384 2075 2632 2365
Q 2881 2656 2881 3163
Q 2881 3666 2632 3958
Q 2384 4250 1959 4250
Q 1534 4250 1286 3958
Q 1038 3666 1038 3163
Q 1038 2656 1286 2365
Q 1534 2075 1959 2075
z
" transform="scale(0.015625)"/>
     </defs>
     <use xlink:href="#DejaVuSans-30"/>
     <use xlink:href="#DejaVuSans-2e" transform="translate(63.623047 0)"/>
     <use xlink:href="#DejaVuSans-37" transform="translate(95.410156 0)"/>
     <use xlink:href="#DejaVuSans-34" transform="translate(159.033203 0)"/>
     <use xlink:href="#DejaVuSans-39" transform="translate(222.65625 0)"/>
    </g>
   </g>
   <g id="text_13">
    <!-- 0.746 -->
    <g transform="translate(539.662905 204.786622) scale(0.11 -0.11)">
     <use xlink:href="#DejaVuSans-30"/>
     <use xlink:href="#DejaVuSans-2e" transform="translate(63.623047 0)"/>
     <use xlink:href="#DejaVuSans-37" transform="translate(95.410156 0)"/>
     <use xlink:href="#DejaVuSans-34" transform="translate(159.033203 0)"/>
     <use xlink:href="#DejaVuSans-36" transform="translate(222.65625 0)"/>
    </g>
   </g>
   <g id="text_14">
    <!-- 0.780 -->
    <g transform="translate(260.878157 196.360615) scale(0.11 -0.11)">
     <use xlink:href="#DejaVuSans-30"/>
     <use xlink:href="#DejaVuSans-2e" transform="translate(63.623047 0)"/>
     <use xlink:href="#DejaVuSans-37" transform="translate(95.410156 0)"/>
     <use xlink:href="#DejaVuSans-38" transform="translate(159.033203 0)"/>
     <use xlink:href="#DejaVuSans-30" transform="translate(222.65625 0)"/>
    </g>
   </g>
   <g id="text_15">
    <!-- 0.786 -->
    <g transform="translate(605.056859 194.835729) scale(0.11 -0.11)">
     <use xlink:href="#DejaVuSans-30"/>
     <use xlink:href="#DejaVuSans-2e" transform="translate(63.623047 0)"/>
     <use xlink:href="#DejaVuSans-37" transform="translate(95.410156 0)"/>
     <use xlink:href="#DejaVuSans-38" transform="translate(159.033203 0)"/>
     <use xlink:href="#DejaVuSans-36" transform="translate(222.65625 0)"/>
    </g>
   </g>
   <g id="text_16">
    <!-- 0.732 -->
    <g transform="translate(326.27211 208.241428) scale(0.11 -0.11)">
     <defs>
      <path id="DejaVuSans-33" d="M 2597 2516
Q 3050 2419 3304 2112
Q 3559 1806 3559 1356
Q 3559 666 3084 287
Q 2609 -91 1734 -91
Q 1441 -91 1130 -33
Q 819 25 488 141
L 488 750
Q 750 597 1062 519
Q 1375 441 1716 441
Q 2309 441 2620 675
Q 2931 909 2931 1356
Q 2931 1769 2642 2001
Q 2353 2234 1838 2234
L 1294 2234
L 1294 2753
L 1863 2753
Q 2328 2753 2575 2939
Q 2822 3125 2822 3475
Q 2822 3834 2567 4026
Q 2313 4219 1838 4219
Q 1578 4219 1281 4162
Q 984 4106 628 3988
L 628 4550
Q 988 4650 1302 4700
Q 1616 4750 1894 4750
Q 2613 4750 3031 4423
Q 3450 4097 3450 3541
Q 3450 3153 3228 2886
Q 3006 2619 2597 2516
z
" transform="scale(0.015625)"/>
     </defs>
     <use xlink:href="#DejaVuSans-30"/>
     <use xlink:href="#DejaVuSans-2e" transform="translate(63.623047 0)"/>
     <use xlink:href="#DejaVuSans-37" transform="translate(95.410156 0)"/>
     <use xlink:href="#DejaVuSans-33" transform="translate(159.033203 0)"/>
     <use xlink:href="#DejaVuSans-32" transform="translate(222.65625 0)"/>
    </g>
   </g>
   <g id="text_17">
    <!-- 0.725 -->
    <g transform="translate(670.450812 209.981975) scale(0.11 -0.11)">
     <use xlink:href="#DejaVuSans-30"/>
     <use xlink:href="#DejaVuSans-2e" transform="translate(63.623047 0)"/>
     <use xlink:href="#DejaVuSans-37" transform="translate(95.410156 0)"/>
     <use xlink:href="#DejaVuSans-32" transform="translate(159.033203 0)"/>
     <use xlink:href="#DejaVuSans-35" transform="translate(222.65625 0)"/>
    </g>
   </g>
   <g id="text_18">
    <!-- 来源错误迁移与强预测侧基线 -->
    <g transform="translate(318.516 67.283281) scale(0.15 -0.15)">
     <defs>
      <path id="NotoSansCJKjp-Regular-6765" d="M 4838 4026
C 4691 3635 4416 3085 4192 2739
L 4602 2598
C 4826 2918 5107 3424 5338 3872
L 4838 4026
z
M 1184 3840
C 1434 3456 1683 2938 1766 2611
L 2221 2790
C 2131 3117 1869 3622 1613 3994
L 1184 3840
z
M 2944 5376
L 2944 4602
L 666 4602
L 666 4147
L 2944 4147
L 2944 2534
L 365 2534
L 365 2074
L 2618 2074
C 2029 1293 1082 544 218 166
C 333 70 486 -115 563 -230
C 1408 192 2323 960 2944 1805
L 2944 -506
L 3450 -506
L 3450 1824
C 4070 966 4992 173 5850 -250
C 5933 -128 6080 51 6195 147
C 5325 531 4371 1293 3782 2074
L 6048 2074
L 6048 2534
L 3450 2534
L 3450 4147
L 5779 4147
L 5779 4602
L 3450 4602
L 3450 5376
L 2944 5376
z
" transform="scale(0.015625)"/>
      <path id="NotoSansCJKjp-Regular-6e90" d="M 3437 2650
L 5395 2650
L 5395 2080
L 3437 2080
L 3437 2650
z
M 3437 3558
L 5395 3558
L 5395 3002
L 3437 3002
L 3437 3558
z
M 3232 1357
C 3053 896 2771 429 2451 109
C 2560 51 2746 -77 2835 -147
C 3142 198 3462 730 3661 1248
L 3232 1357
z
M 5043 1242
C 5344 832 5658 282 5773 -64
L 6214 134
C 6080 486 5754 1018 5453 1408
L 5043 1242
z
M 557 4973
C 941 4781 1395 4467 1619 4237
L 1907 4621
C 1683 4851 1216 5133 832 5312
L 557 4973
z
M 243 3245
C 634 3072 1094 2784 1318 2566
L 1600 2950
C 1370 3162 896 3437 512 3597
L 243 3245
z
M 378 -154
L 806 -422
C 1114 179 1472 973 1734 1651
L 1350 1920
C 1062 1190 659 346 378 -154
z
M 3002 3930
L 3002 1709
L 4154 1709
L 4154 0
C 4154 -70 4128 -96 4051 -102
C 3968 -102 3686 -102 3386 -96
C 3443 -218 3501 -390 3520 -506
C 3942 -512 4224 -512 4397 -442
C 4570 -371 4614 -250 4614 -13
L 4614 1709
L 5843 1709
L 5843 3930
L 4499 3930
L 4704 4621
L 4672 4627
L 6086 4627
L 6086 5062
L 2163 5062
L 2163 3309
C 2163 2253 2093 800 1370 -230
C 1478 -282 1683 -403 1766 -486
C 2528 589 2630 2189 2630 3309
L 2630 4627
L 4166 4627
C 4141 4416 4083 4147 4032 3930
L 3002 3930
z
" transform="scale(0.015625)"/>
      <path id="NotoSansCJKjp-Regular-9519" d="M 1139 5357
C 947 4768 621 4205 237 3821
C 320 3725 442 3488 480 3392
C 685 3603 877 3866 1050 4154
L 2566 4154
L 2566 4608
L 1299 4608
C 1395 4813 1485 5024 1555 5235
L 1139 5357
z
M 397 2202
L 397 1760
L 1293 1760
L 1293 493
C 1293 218 1101 38 986 -26
C 1069 -122 1178 -320 1216 -429
C 1318 -326 1485 -218 2560 384
C 2528 480 2483 666 2470 794
L 1734 410
L 1734 1760
L 2611 1760
L 2611 2202
L 1734 2202
L 1734 3066
L 2470 3066
L 2470 3501
L 678 3501
L 678 3066
L 1293 3066
L 1293 2202
L 397 2202
z
M 4794 5376
L 4794 4531
L 3904 4531
L 3904 5376
L 3469 5376
L 3469 4531
L 2842 4531
L 2842 4109
L 3469 4109
L 3469 3264
L 2688 3264
L 2688 2829
L 6131 2829
L 6131 3264
L 5235 3264
L 5235 4109
L 5984 4109
L 5984 4531
L 5235 4531
L 5235 5376
L 4794 5376
z
M 3904 4109
L 4794 4109
L 4794 3264
L 3904 3264
L 3904 4109
z
M 3501 851
L 5248 851
L 5248 173
L 3501 173
L 3501 851
z
M 3501 1242
L 3501 1901
L 5248 1901
L 5248 1242
L 3501 1242
z
M 3059 2310
L 3059 -499
L 3501 -499
L 3501 -224
L 5248 -224
L 5248 -474
L 5702 -474
L 5702 2310
L 3059 2310
z
" transform="scale(0.015625)"/>
      <path id="NotoSansCJKjp-Regular-8bef" d="M 3181 4653
L 5254 4653
L 5254 3770
L 3181 3770
L 3181 4653
z
M 2733 5075
L 2733 3347
L 5722 3347
L 5722 5075
L 2733 5075
z
M 653 4902
C 998 4602 1421 4173 1626 3898
L 1958 4250
C 1754 4512 1312 4922 973 5203
L 653 4902
z
M 2342 1632
L 2342 1203
L 3789 1203
C 3578 563 3136 134 2157 -128
C 2259 -218 2381 -403 2426 -512
C 3411 -218 3910 237 4166 902
C 4512 205 5088 -288 5882 -531
C 5939 -397 6080 -218 6189 -122
C 5382 77 4800 544 4493 1203
L 6150 1203
L 6150 1632
L 4358 1632
C 4390 1850 4416 2086 4429 2336
L 5907 2336
L 5907 2771
L 2554 2771
L 2554 2336
L 3974 2336
C 3962 2080 3936 1850 3898 1632
L 2342 1632
z
M 1210 -320
C 1306 -205 1466 -83 2490 634
C 2451 730 2387 909 2362 1030
L 1658 570
L 1658 3379
L 282 3379
L 282 2918
L 1190 2918
L 1190 595
C 1190 333 1056 186 960 122
C 1043 19 1171 -205 1210 -320
z
" transform="scale(0.015625)"/>
      <path id="NotoSansCJKjp-Regular-8fc1" d="M 602 4998
C 992 4781 1440 4435 1658 4179
L 1990 4506
C 1773 4755 1306 5088 922 5293
L 602 4998
z
M 346 3693
C 768 3482 1254 3149 1485 2886
L 1811 3226
C 1574 3488 1075 3808 659 4000
L 346 3693
z
M 5357 5306
C 4621 5043 3290 4838 2144 4723
C 2195 4621 2253 4448 2272 4339
C 2746 4384 3258 4442 3750 4512
L 3750 3142
L 1997 3142
L 1997 2694
L 3750 2694
L 3750 346
L 4224 346
L 4224 2694
L 6080 2694
L 6080 3142
L 4224 3142
L 4224 4589
C 4774 4685 5293 4800 5702 4934
L 5357 5306
z
M 1690 2400
L 314 2400
L 314 1952
L 1222 1952
L 1222 742
C 902 480 531 218 237 19
L 474 -461
C 832 -179 1171 90 1485 365
C 1888 -134 2464 -365 3296 -397
C 4000 -416 5325 -403 6016 -378
C 6035 -237 6118 -13 6170 102
C 5421 51 3987 32 3296 64
C 2554 90 1997 314 1690 781
L 1690 2400
z
" transform="scale(0.015625)"/>
      <path id="NotoSansCJKjp-Regular-79fb" d="M 3910 4416
L 5197 4416
C 5024 4083 4774 3795 4486 3546
C 4275 3750 3949 3994 3654 4179
L 3910 4416
z
M 4109 5376
C 3827 4883 3277 4307 2477 3910
C 2573 3834 2720 3680 2784 3578
C 2982 3686 3168 3808 3341 3930
C 3629 3750 3949 3494 4154 3290
C 3686 2970 3136 2739 2586 2605
C 2675 2515 2790 2336 2835 2221
C 4122 2586 5325 3347 5824 4691
L 5523 4838
L 5434 4819
L 4269 4819
C 4390 4973 4499 5126 4589 5286
L 4109 5376
z
M 4211 1952
L 5536 1952
C 5350 1555 5088 1222 4768 941
C 4531 1165 4166 1427 3840 1626
C 3974 1728 4096 1837 4211 1952
z
M 4454 2963
C 4141 2400 3501 1760 2560 1325
C 2656 1254 2797 1094 2861 992
C 3085 1107 3296 1229 3488 1363
C 3821 1165 4173 890 4410 659
C 3846 282 3168 32 2451 -102
C 2541 -205 2650 -397 2694 -512
C 4243 -166 5613 621 6157 2246
L 5850 2381
L 5760 2362
L 4576 2362
C 4717 2534 4832 2707 4934 2880
L 4454 2963
z
M 2310 5286
C 1837 5069 992 4883 275 4762
C 333 4659 397 4499 416 4397
C 717 4435 1037 4493 1357 4557
L 1357 3571
L 314 3571
L 314 3123
L 1293 3123
C 1037 2387 595 1555 179 1101
C 262 986 378 794 429 659
C 755 1056 1094 1690 1357 2336
L 1357 -499
L 1830 -499
L 1830 2259
C 2048 1990 2304 1645 2413 1466
L 2701 1843
C 2573 1990 2016 2566 1830 2726
L 1830 3123
L 2630 3123
L 2630 3571
L 1830 3571
L 1830 4666
C 2131 4736 2413 4819 2643 4915
L 2310 5286
z
" transform="scale(0.015625)"/>
      <path id="NotoSansCJKjp-Regular-4e0e" d="M 1939 5389
C 1773 4429 1485 3098 1267 2317
L 1760 2272
L 1843 2605
L 4525 2605
C 4486 2246 4454 1939 4416 1664
L 346 1664
L 346 1210
L 4346 1210
C 4230 518 4102 160 3949 26
C 3866 -45 3776 -51 3616 -51
C 3437 -51 2957 -51 2470 0
C 2560 -134 2624 -339 2637 -480
C 3098 -512 3558 -518 3789 -506
C 4045 -486 4198 -442 4365 -282
C 4570 -83 4710 346 4845 1210
L 6074 1210
L 6074 1664
L 4902 1664
C 4947 1997 4986 2374 5030 2816
C 5037 2886 5050 3053 5050 3053
L 1952 3053
L 2163 4000
L 5402 4000
L 5402 4461
L 2259 4461
L 2432 5338
L 1939 5389
z
" transform="scale(0.015625)"/>
      <path id="NotoSansCJKjp-Regular-5f3a" d="M 3309 4621
L 5184 4621
L 5184 3757
L 3309 3757
L 3309 4621
z
M 2867 5024
L 2867 3347
L 4006 3347
L 4006 2861
L 2733 2861
L 2733 1178
L 4006 1178
L 4006 205
L 2445 115
L 2515 -352
C 3328 -294 4480 -211 5587 -122
C 5664 -275 5728 -422 5773 -550
L 6195 -352
C 6061 32 5702 602 5370 1037
L 4973 858
C 5101 685 5235 493 5350 294
L 4461 237
L 4461 1178
L 5805 1178
L 5805 2861
L 4461 2861
L 4461 3347
L 5638 3347
L 5638 5024
L 2867 5024
z
M 3155 2458
L 4006 2458
L 4006 1581
L 3155 1581
L 3155 2458
z
M 4461 2458
L 5363 2458
L 5363 1581
L 4461 1581
L 4461 2458
z
M 531 3571
C 480 2950 378 2118 288 1613
L 730 1555
L 768 1811
L 1907 1811
C 1830 595 1741 115 1619 -13
C 1562 -77 1498 -83 1395 -83
C 1286 -83 1011 -83 717 -58
C 787 -179 838 -365 851 -499
C 1139 -512 1440 -518 1594 -506
C 1779 -486 1901 -442 2010 -314
C 2202 -102 2291 474 2387 2035
C 2394 2106 2400 2246 2400 2246
L 826 2246
L 928 3130
L 2330 3130
L 2330 5043
L 371 5043
L 371 4602
L 1882 4602
L 1882 3571
L 531 3571
z
" transform="scale(0.015625)"/>
      <path id="NotoSansCJKjp-Regular-9884" d="M 4288 3168
L 4288 1888
C 4288 1229 4141 365 2624 -134
C 2733 -224 2861 -384 2918 -480
C 4544 115 4742 1075 4742 1882
L 4742 3168
L 4288 3168
z
M 4640 563
C 5043 243 5562 -218 5811 -506
L 6144 -166
C 5888 109 5357 550 4960 858
L 4640 563
z
M 563 3891
C 954 3629 1453 3277 1805 3008
L 243 3008
L 243 2579
L 1299 2579
L 1299 64
C 1299 -19 1274 -38 1178 -45
C 1088 -45 794 -45 461 -38
C 531 -173 595 -365 614 -499
C 1056 -499 1344 -493 1523 -416
C 1709 -339 1760 -205 1760 51
L 1760 2579
L 2445 2579
C 2330 2234 2202 1882 2086 1638
L 2451 1542
C 2624 1888 2822 2451 2989 2944
L 2688 3027
L 2618 3008
L 2182 3008
L 2310 3174
C 2163 3290 1958 3443 1728 3597
C 2106 3936 2522 4429 2797 4890
L 2502 5094
L 2419 5069
L 378 5069
L 378 4640
L 2099 4640
C 1901 4352 1638 4038 1395 3827
L 826 4198
L 563 3891
z
M 3200 4019
L 3200 973
L 3648 973
L 3648 3578
L 5414 3578
L 5414 986
L 5882 986
L 5882 4019
L 4634 4019
L 4858 4659
L 6138 4659
L 6138 5094
L 2970 5094
L 2970 4659
L 4333 4659
C 4288 4448 4230 4218 4173 4019
L 3200 4019
z
" transform="scale(0.015625)"/>
      <path id="NotoSansCJKjp-Regular-6d4b" d="M 3110 589
C 3437 269 3814 -179 3994 -467
L 4307 -250
C 4122 26 3738 461 3411 774
L 3110 589
z
M 1997 5005
L 1997 986
L 2374 986
L 2374 4634
L 3763 4634
L 3763 1005
L 4154 1005
L 4154 5005
L 1997 5005
z
M 5549 5293
L 5549 45
C 5549 -51 5510 -83 5421 -83
C 5331 -90 5030 -90 4691 -83
C 4749 -198 4813 -384 4832 -486
C 5280 -493 5555 -480 5722 -410
C 5882 -339 5946 -218 5946 45
L 5946 5293
L 5549 5293
z
M 4672 4800
L 4672 966
L 5056 966
L 5056 4800
L 4672 4800
z
M 2854 4179
L 2854 1914
C 2854 1139 2726 339 1658 -205
C 1728 -262 1850 -422 1894 -499
C 3046 83 3226 1050 3226 1907
L 3226 4179
L 2854 4179
z
M 518 4966
C 877 4768 1338 4461 1555 4256
L 1850 4646
C 1619 4838 1152 5120 806 5306
L 518 4966
z
M 243 3238
C 595 3040 1062 2752 1293 2560
L 1581 2944
C 1338 3130 864 3405 518 3584
L 243 3238
z
M 371 -173
L 806 -429
C 1075 160 1395 947 1626 1619
L 1242 1869
C 986 1152 627 320 371 -173
z
" transform="scale(0.015625)"/>
      <path id="NotoSansCJKjp-Regular-4fa7" d="M 3066 634
C 3373 301 3731 -160 3891 -448
L 4198 -218
C 4032 58 3667 506 3360 832
L 3066 634
z
M 1875 4973
L 1875 973
L 2259 973
L 2259 4602
L 3648 4602
L 3648 986
L 4051 986
L 4051 4973
L 1875 4973
z
M 5498 5318
L 5498 45
C 5498 -51 5466 -77 5382 -77
C 5299 -77 5024 -83 4717 -70
C 4774 -192 4832 -378 4851 -493
C 5274 -493 5536 -480 5690 -410
C 5843 -339 5907 -211 5907 51
L 5907 5318
L 5498 5318
z
M 4557 4762
L 4557 928
L 4947 928
L 4947 4762
L 4557 4762
z
M 2765 4173
L 2765 1990
C 2765 1216 2650 358 1677 -230
C 1747 -288 1882 -429 1926 -512
C 2976 109 3136 1126 3136 1990
L 3136 4173
L 2765 4173
z
M 1293 5370
C 1043 4390 646 3411 173 2752
C 250 2643 378 2406 422 2304
C 589 2534 749 2810 896 3104
L 896 -493
L 1299 -493
L 1299 4013
C 1459 4422 1600 4845 1715 5267
L 1293 5370
z
" transform="scale(0.015625)"/>
      <path id="NotoSansCJKjp-Regular-57fa" d="M 4378 5370
L 4378 4755
L 2048 4755
L 2048 5376
L 1568 5376
L 1568 4755
L 589 4755
L 589 4352
L 1568 4352
L 1568 2298
L 294 2298
L 294 1888
L 1690 1888
C 1318 1434 755 1030 230 819
C 333 730 474 563 544 448
C 1165 742 1818 1286 2214 1888
L 4237 1888
C 4627 1318 5254 787 5869 525
C 5946 640 6086 813 6189 902
C 5651 1094 5107 1466 4742 1888
L 6112 1888
L 6112 2298
L 4864 2298
L 4864 4352
L 5830 4352
L 5830 4755
L 4864 4755
L 4864 5370
L 4378 5370
z
M 2048 4352
L 4378 4352
L 4378 3923
L 2048 3923
L 2048 4352
z
M 2944 1683
L 2944 1146
L 1632 1146
L 1632 749
L 2944 749
L 2944 70
L 794 70
L 794 -339
L 5645 -339
L 5645 70
L 3430 70
L 3430 749
L 4774 749
L 4774 1146
L 3430 1146
L 3430 1683
L 2944 1683
z
M 2048 3565
L 4378 3565
L 4378 3117
L 2048 3117
L 2048 3565
z
M 2048 2752
L 4378 2752
L 4378 2298
L 2048 2298
L 2048 2752
z
" transform="scale(0.015625)"/>
      <path id="NotoSansCJKjp-Regular-7ebf" d="M 346 346
L 448 -115
C 1037 64 1805 294 2547 512
L 2477 922
C 1690 698 877 474 346 346
z
M 4506 4992
C 4826 4838 5229 4589 5434 4410
L 5715 4710
C 5510 4883 5101 5120 4787 5261
L 4506 4992
z
M 461 2707
C 550 2752 704 2790 1485 2893
C 1203 2477 954 2157 832 2029
C 634 1792 486 1632 346 1606
C 403 1485 474 1261 499 1165
C 634 1242 851 1306 2458 1632
C 2445 1728 2445 1907 2458 2035
L 1184 1805
C 1670 2381 2157 3085 2566 3789
L 2163 4032
C 2042 3795 1901 3552 1760 3322
L 947 3238
C 1331 3782 1702 4474 1978 5146
L 1530 5357
C 1274 4589 806 3770 666 3558
C 525 3341 416 3194 301 3162
C 358 3034 435 2803 461 2707
z
M 5677 2234
C 5421 1830 5075 1459 4659 1139
C 4557 1478 4467 1888 4403 2349
L 6035 2656
L 5958 3078
L 4346 2778
C 4314 3046 4282 3328 4262 3622
L 5856 3866
L 5779 4288
L 4237 4058
C 4218 4486 4211 4928 4211 5389
L 3738 5389
C 3744 4909 3757 4442 3782 3987
L 2771 3840
L 2848 3405
L 3808 3552
C 3827 3258 3859 2970 3891 2694
L 2643 2464
L 2720 2029
L 3949 2259
C 4026 1728 4128 1248 4262 851
C 3718 486 3091 198 2438 0
C 2554 -109 2675 -282 2739 -397
C 3341 -186 3910 90 4422 422
C 4685 -154 5030 -493 5485 -493
C 5926 -493 6074 -282 6163 435
C 6054 480 5901 582 5805 691
C 5773 122 5709 -26 5536 -26
C 5254 -26 5018 237 4819 704
C 5325 1088 5760 1542 6080 2042
L 5677 2234
z
" transform="scale(0.015625)"/>
     </defs>
     <use xlink:href="#NotoSansCJKjp-Regular-6765"/>
     <use xlink:href="#NotoSansCJKjp-Regular-6e90" transform="translate(99.999985 0)"/>
     <use xlink:href="#NotoSansCJKjp-Regular-9519" transform="translate(199.999969 0)"/>
     <use xlink:href="#NotoSansCJKjp-Regular-8bef" transform="translate(299.999954 0)"/>
     <use xlink:href="#NotoSansCJKjp-Regular-8fc1" transform="translate(399.999939 0)"/>
     <use xlink:href="#NotoSansCJKjp-Regular-79fb" transform="translate(499.999924 0)"/>
     <use xlink:href="#NotoSansCJKjp-Regular-4e0e" transform="translate(599.999908 0)"/>
     <use xlink:href="#NotoSansCJKjp-Regular-5f3a" transform="translate(699.999893 0)"/>
     <use xlink:href="#NotoSansCJKjp-Regular-9884" transform="translate(799.999878 0)"/>
     <use xlink:href="#NotoSansCJKjp-Regular-6d4b" transform="translate(899.999863 0)"/>
     <use xlink:href="#NotoSansCJKjp-Regular-4fa7" transform="translate(999.999847 0)"/>
     <use xlink:href="#NotoSansCJKjp-Regular-57fa" transform="translate(1099.999832 0)"/>
     <use xlink:href="#NotoSansCJKjp-Regular-7ebf" transform="translate(1199.999817 0)"/>
    </g>
    <!-- 1,808 tasks / 575 gene clusters · DEV/SEEN -->
    <g transform="translate(252.762094 84.08) scale(0.15 -0.15)">
     <defs>
      <path id="DejaVuSans-2c" d="M 750 794
L 1409 794
L 1409 256
L 897 -744
L 494 -744
L 750 256
L 750 794
z
" transform="scale(0.015625)"/>
      <path id="DejaVuSans-73" d="M 2834 3397
L 2834 2853
Q 2591 2978 2328 3040
Q 2066 3103 1784 3103
Q 1356 3103 1142 2972
Q 928 2841 928 2578
Q 928 2378 1081 2264
Q 1234 2150 1697 2047
L 1894 2003
Q 2506 1872 2764 1633
Q 3022 1394 3022 966
Q 3022 478 2636 193
Q 2250 -91 1575 -91
Q 1294 -91 989 -36
Q 684 19 347 128
L 347 722
Q 666 556 975 473
Q 1284 391 1588 391
Q 1994 391 2212 530
Q 2431 669 2431 922
Q 2431 1156 2273 1281
Q 2116 1406 1581 1522
L 1381 1569
Q 847 1681 609 1914
Q 372 2147 372 2553
Q 372 3047 722 3315
Q 1072 3584 1716 3584
Q 2034 3584 2315 3537
Q 2597 3491 2834 3397
z
" transform="scale(0.015625)"/>
      <path id="DejaVuSans-6b" d="M 581 4863
L 1159 4863
L 1159 1991
L 2875 3500
L 3609 3500
L 1753 1863
L 3688 0
L 2938 0
L 1159 1709
L 1159 0
L 581 0
L 581 4863
z
" transform="scale(0.015625)"/>
      <path id="DejaVuSans-2f" d="M 1625 4666
L 2156 4666
L 531 -594
L 0 -594
L 1625 4666
z
" transform="scale(0.015625)"/>
      <path id="DejaVuSans-67" d="M 2906 1791
Q 2906 2416 2648 2759
Q 2391 3103 1925 3103
Q 1463 3103 1205 2759
Q 947 2416 947 1791
Q 947 1169 1205 825
Q 1463 481 1925 481
Q 2391 481 2648 825
Q 2906 1169 2906 1791
z
M 3481 434
Q 3481 -459 3084 -895
Q 2688 -1331 1869 -1331
Q 1566 -1331 1297 -1286
Q 1028 -1241 775 -1147
L 775 -588
Q 1028 -725 1275 -790
Q 1522 -856 1778 -856
Q 2344 -856 2625 -561
Q 2906 -266 2906 331
L 2906 616
Q 2728 306 2450 153
Q 2172 0 1784 0
Q 1141 0 747 490
Q 353 981 353 1791
Q 353 2603 747 3093
Q 1141 3584 1784 3584
Q 2172 3584 2450 3431
Q 2728 3278 2906 2969
L 2906 3500
L 3481 3500
L 3481 434
z
" transform="scale(0.015625)"/>
      <path id="DejaVuSans-6c" d="M 603 4863
L 1178 4863
L 1178 0
L 603 0
L 603 4863
z
" transform="scale(0.015625)"/>
      <path id="DejaVuSans-75" d="M 544 1381
L 544 3500
L 1119 3500
L 1119 1403
Q 1119 906 1312 657
Q 1506 409 1894 409
Q 2359 409 2629 706
Q 2900 1003 2900 1516
L 2900 3500
L 3475 3500
L 3475 0
L 2900 0
L 2900 538
Q 2691 219 2414 64
Q 2138 -91 1772 -91
Q 1169 -91 856 284
Q 544 659 544 1381
z
M 1991 3584
L 1991 3584
z
" transform="scale(0.015625)"/>
      <path id="DejaVuSans-b7" d="M 684 2619
L 1344 2619
L 1344 1825
L 684 1825
L 684 2619
z
" transform="scale(0.015625)"/>
      <path id="DejaVuSans-44" d="M 1259 4147
L 1259 519
L 2022 519
Q 2988 519 3436 956
Q 3884 1394 3884 2338
Q 3884 3275 3436 3711
Q 2988 4147 2022 4147
L 1259 4147
z
M 628 4666
L 1925 4666
Q 3281 4666 3915 4102
Q 4550 3538 4550 2338
Q 4550 1131 3912 565
Q 3275 0 1925 0
L 628 0
L 628 4666
z
" transform="scale(0.015625)"/>
      <path id="DejaVuSans-56" d="M 1831 0
L 50 4666
L 709 4666
L 2188 738
L 3669 4666
L 4325 4666
L 2547 0
L 1831 0
z
" transform="scale(0.015625)"/>
      <path id="DejaVuSans-53" d="M 3425 4513
L 3425 3897
Q 3066 4069 2747 4153
Q 2428 4238 2131 4238
Q 1616 4238 1336 4038
Q 1056 3838 1056 3469
Q 1056 3159 1242 3001
Q 1428 2844 1947 2747
L 2328 2669
Q 3034 2534 3370 2195
Q 3706 1856 3706 1288
Q 3706 609 3251 259
Q 2797 -91 1919 -91
Q 1588 -91 1214 -16
Q 841 59 441 206
L 441 856
Q 825 641 1194 531
Q 1563 422 1919 422
Q 2459 422 2753 634
Q 3047 847 3047 1241
Q 3047 1584 2836 1778
Q 2625 1972 2144 2069
L 1759 2144
Q 1053 2284 737 2584
Q 422 2884 422 3419
Q 422 4038 858 4394
Q 1294 4750 2059 4750
Q 2388 4750 2728 4690
Q 3069 4631 3425 4513
z
" transform="scale(0.015625)"/>
      <path id="DejaVuSans-4e" d="M 628 4666
L 1478 4666
L 3547 763
L 3547 4666
L 4159 4666
L 4159 0
L 3309 0
L 1241 3903
L 1241 0
L 628 0
L 628 4666
z
" transform="scale(0.015625)"/>
     </defs>
     <use xlink:href="#DejaVuSans-31"/>
     <use xlink:href="#DejaVuSans-2c" transform="translate(63.623047 0)"/>
     <use xlink:href="#DejaVuSans-38" transform="translate(95.410156 0)"/>
     <use xlink:href="#DejaVuSans-30" transform="translate(159.033203 0)"/>
     <use xlink:href="#DejaVuSans-38" transform="translate(222.65625 0)"/>
     <use xlink:href="#DejaVuSans-20" transform="translate(286.279297 0)"/>
     <use xlink:href="#DejaVuSans-74" transform="translate(318.066406 0)"/>
     <use xlink:href="#DejaVuSans-61" transform="translate(357.275391 0)"/>
     <use xlink:href="#DejaVuSans-73" transform="translate(418.554688 0)"/>
     <use xlink:href="#DejaVuSans-6b" transform="translate(470.654297 0)"/>
     <use xlink:href="#DejaVuSans-73" transform="translate(528.564453 0)"/>
     <use xlink:href="#DejaVuSans-20" transform="translate(580.664062 0)"/>
     <use xlink:href="#DejaVuSans-2f" transform="translate(612.451172 0)"/>
     <use xlink:href="#DejaVuSans-20" transform="translate(646.142578 0)"/>
     <use xlink:href="#DejaVuSans-35" transform="translate(677.929688 0)"/>
     <use xlink:href="#DejaVuSans-37" transform="translate(741.552734 0)"/>
     <use xlink:href="#DejaVuSans-35" transform="translate(805.175781 0)"/>
     <use xlink:href="#DejaVuSans-20" transform="translate(868.798828 0)"/>
     <use xlink:href="#DejaVuSans-67" transform="translate(900.585938 0)"/>
     <use xlink:href="#DejaVuSans-65" transform="translate(964.0625 0)"/>
     <use xlink:href="#DejaVuSans-6e" transform="translate(1025.585938 0)"/>
     <use xlink:href="#DejaVuSans-65" transform="translate(1088.964844 0)"/>
     <use xlink:href="#DejaVuSans-20" transform="translate(1150.488281 0)"/>
     <use xlink:href="#DejaVuSans-63" transform="translate(1182.275391 0)"/>
     <use xlink:href="#DejaVuSans-6c" transform="translate(1237.255859 0)"/>
     <use xlink:href="#DejaVuSans-75" transform="translate(1265.039062 0)"/>
     <use xlink:href="#DejaVuSans-73" transform="translate(1328.417969 0)"/>
     <use xlink:href="#DejaVuSans-74" transform="translate(1380.517578 0)"/>
     <use xlink:href="#DejaVuSans-65" transform="translate(1419.726562 0)"/>
     <use xlink:href="#DejaVuSans-72" transform="translate(1481.25 0)"/>
     <use xlink:href="#DejaVuSans-73" transform="translate(1522.363281 0)"/>
     <use xlink:href="#DejaVuSans-20" transform="translate(1574.462891 0)"/>
     <use xlink:href="#DejaVuSans-b7" transform="translate(1606.25 0)"/>
     <use xlink:href="#DejaVuSans-20" transform="translate(1638.037109 0)"/>
     <use xlink:href="#DejaVuSans-44" transform="translate(1669.824219 0)"/>
     <use xlink:href="#DejaVuSans-45" transform="translate(1746.826172 0)"/>
     <use xlink:href="#DejaVuSans-56" transform="translate(1810.009766 0)"/>
     <use xlink:href="#DejaVuSans-2f" transform="translate(1878.417969 0)"/>
     <use xlink:href="#DejaVuSans-53" transform="translate(1912.109375 0)"/>
     <use xlink:href="#DejaVuSans-45" transform="translate(1975.585938 0)"/>
     <use xlink:href="#DejaVuSans-45" transform="translate(2038.769531 0)"/>
     <use xlink:href="#DejaVuSans-4e" transform="translate(2101.953125 0)"/>
    </g>
   </g>
   <g id="legend_1">
    <g id="patch_13">
     <path d="M 211.590219 127.682313
L 231.590219 127.682313
L 231.590219 120.682313
L 211.590219 120.682313
z
" style="fill: #81909a"/>
    </g>
    <g id="text_19">
     <!-- Public rank -->
     <g transform="translate(239.590219 127.682313) scale(0.1 -0.1)">
      <defs>
       <path id="DejaVuSans-50" d="M 1259 4147
L 1259 2394
L 2053 2394
Q 2494 2394 2734 2622
Q 2975 2850 2975 3272
Q 2975 3691 2734 3919
Q 2494 4147 2053 4147
L 1259 4147
z
M 628 4666
L 2053 4666
Q 2838 4666 3239 4311
Q 3641 3956 3641 3272
Q 3641 2581 3239 2228
Q 2838 1875 2053 1875
L 1259 1875
L 1259 0
L 628 0
L 628 4666
z
" transform="scale(0.015625)"/>
       <path id="DejaVuSans-62" d="M 3116 1747
Q 3116 2381 2855 2742
Q 2594 3103 2138 3103
Q 1681 3103 1420 2742
Q 1159 2381 1159 1747
Q 1159 1113 1420 752
Q 1681 391 2138 391
Q 2594 391 2855 752
Q 3116 1113 3116 1747
z
M 1159 2969
Q 1341 3281 1617 3432
Q 1894 3584 2278 3584
Q 2916 3584 3314 3078
Q 3713 2572 3713 1747
Q 3713 922 3314 415
Q 2916 -91 2278 -91
Q 1894 -91 1617 61
Q 1341 213 1159 525
L 1159 0
L 581 0
L 581 4863
L 1159 4863
L 1159 2969
z
" transform="scale(0.015625)"/>
       <path id="DejaVuSans-69" d="M 603 3500
L 1178 3500
L 1178 0
L 603 0
L 603 3500
z
M 603 4863
L 1178 4863
L 1178 4134
L 603 4134
L 603 4863
z
" transform="scale(0.015625)"/>
      </defs>
      <use xlink:href="#DejaVuSans-50"/>
      <use xlink:href="#DejaVuSans-75" transform="translate(58.552734 0)"/>
      <use xlink:href="#DejaVuSans-62" transform="translate(121.931641 0)"/>
      <use xlink:href="#DejaVuSans-6c" transform="translate(185.408203 0)"/>
      <use xlink:href="#DejaVuSans-69" transform="translate(213.191406 0)"/>
      <use xlink:href="#DejaVuSans-63" transform="translate(240.974609 0)"/>
      <use xlink:href="#DejaVuSans-20" transform="translate(295.955078 0)"/>
      <use xlink:href="#DejaVuSans-72" transform="translate(327.742188 0)"/>
      <use xlink:href="#DejaVuSans-61" transform="translate(368.855469 0)"/>
      <use xlink:href="#DejaVuSans-6e" transform="translate(430.134766 0)"/>
      <use xlink:href="#DejaVuSans-6b" transform="translate(493.513672 0)"/>
     </g>
    </g>
    <g id="patch_14">
     <path d="M 314.730844 127.682313
L 334.730844 127.682313
L 334.730844 120.682313
L 314.730844 120.682313
z
" style="fill: #d7924b"/>
    </g>
    <g id="text_20">
     <!-- Magnitude -->
     <g transform="translate(342.730844 127.682313) scale(0.1 -0.1)">
      <defs>
       <path id="DejaVuSans-4d" d="M 628 4666
L 1569 4666
L 2759 1491
L 3956 4666
L 4897 4666
L 4897 0
L 4281 0
L 4281 4097
L 3078 897
L 2444 897
L 1241 4097
L 1241 0
L 628 0
L 628 4666
z
" transform="scale(0.015625)"/>
       <path id="DejaVuSans-64" d="M 2906 2969
L 2906 4863
L 3481 4863
L 3481 0
L 2906 0
L 2906 525
Q 2725 213 2448 61
Q 2172 -91 1784 -91
Q 1150 -91 751 415
Q 353 922 353 1747
Q 353 2572 751 3078
Q 1150 3584 1784 3584
Q 2172 3584 2448 3432
Q 2725 3281 2906 2969
z
M 947 1747
Q 947 1113 1208 752
Q 1469 391 1925 391
Q 2381 391 2643 752
Q 2906 1113 2906 1747
Q 2906 2381 2643 2742
Q 2381 3103 1925 3103
Q 1469 3103 1208 2742
Q 947 2381 947 1747
z
" transform="scale(0.015625)"/>
      </defs>
      <use xlink:href="#DejaVuSans-4d"/>
      <use xlink:href="#DejaVuSans-61" transform="translate(86.279297 0)"/>
      <use xlink:href="#DejaVuSans-67" transform="translate(147.558594 0)"/>
      <use xlink:href="#DejaVuSans-6e" transform="translate(211.035156 0)"/>
      <use xlink:href="#DejaVuSans-69" transform="translate(274.414062 0)"/>
      <use xlink:href="#DejaVuSans-74" transform="translate(302.197266 0)"/>
      <use xlink:href="#DejaVuSans-75" transform="translate(341.40625 0)"/>
      <use xlink:href="#DejaVuSans-64" transform="translate(404.785156 0)"/>
      <use xlink:href="#DejaVuSans-65" transform="translate(468.261719 0)"/>
     </g>
    </g>
    <g id="patch_15">
     <path d="M 415.710531 127.682313
L 435.710531 127.682313
L 435.710531 120.682313
L 415.710531 120.682313
z
" style="fill: #3e78b0"/>
    </g>
    <g id="text_21">
     <!-- Source HGB -->
     <g transform="translate(443.710531 127.682313) scale(0.1 -0.1)">
      <defs>
       <path id="DejaVuSans-48" d="M 628 4666
L 1259 4666
L 1259 2753
L 3553 2753
L 3553 4666
L 4184 4666
L 4184 0
L 3553 0
L 3553 2222
L 1259 2222
L 1259 0
L 628 0
L 628 4666
z
" transform="scale(0.015625)"/>
       <path id="DejaVuSans-42" d="M 1259 2228
L 1259 519
L 2272 519
Q 2781 519 3026 730
Q 3272 941 3272 1375
Q 3272 1813 3026 2020
Q 2781 2228 2272 2228
L 1259 2228
z
M 1259 4147
L 1259 2741
L 2194 2741
Q 2656 2741 2882 2914
Q 3109 3088 3109 3444
Q 3109 3797 2882 3972
Q 2656 4147 2194 4147
L 1259 4147
z
M 628 4666
L 2241 4666
Q 2963 4666 3353 4366
Q 3744 4066 3744 3513
Q 3744 3084 3544 2831
Q 3344 2578 2956 2516
Q 3422 2416 3680 2098
Q 3938 1781 3938 1306
Q 3938 681 3513 340
Q 3088 0 2303 0
L 628 0
L 628 4666
z
" transform="scale(0.015625)"/>
      </defs>
      <use xlink:href="#DejaVuSans-53"/>
      <use xlink:href="#DejaVuSans-6f" transform="translate(63.476562 0)"/>
      <use xlink:href="#DejaVuSans-75" transform="translate(124.658203 0)"/>
      <use xlink:href="#DejaVuSans-72" transform="translate(188.037109 0)"/>
      <use xlink:href="#DejaVuSans-63" transform="translate(226.900391 0)"/>
      <use xlink:href="#DejaVuSans-65" transform="translate(281.880859 0)"/>
      <use xlink:href="#DejaVuSans-20" transform="translate(343.404297 0)"/>
      <use xlink:href="#DejaVuSans-48" transform="translate(375.191406 0)"/>
      <use xlink:href="#DejaVuSans-47" transform="translate(450.386719 0)"/>
      <use xlink:href="#DejaVuSans-42" transform="translate(527.876953 0)"/>
     </g>
    </g>
    <g id="patch_16">
     <path d="M 523.360531 127.682313
L 543.360531 127.682313
L 543.360531 120.682313
L 523.360531 120.682313
z
" style="fill: #a59bc3"/>
    </g>
    <g id="text_22">
     <!-- Selected gate -->
     <g transform="translate(551.360531 127.682313) scale(0.1 -0.1)">
      <use xlink:href="#DejaVuSans-53"/>
      <use xlink:href="#DejaVuSans-65" transform="translate(63.476562 0)"/>
      <use xlink:href="#DejaVuSans-6c" transform="translate(125 0)"/>
      <use xlink:href="#DejaVuSans-65" transform="translate(152.783203 0)"/>
      <use xlink:href="#DejaVuSans-63" transform="translate(214.306641 0)"/>
      <use xlink:href="#DejaVuSans-74" transform="translate(269.287109 0)"/>
      <use xlink:href="#DejaVuSans-65" transform="translate(308.496094 0)"/>
      <use xlink:href="#DejaVuSans-64" transform="translate(370.019531 0)"/>
      <use xlink:href="#DejaVuSans-20" transform="translate(433.496094 0)"/>
      <use xlink:href="#DejaVuSans-67" transform="translate(465.283203 0)"/>
      <use xlink:href="#DejaVuSans-61" transform="translate(528.759766 0)"/>
      <use xlink:href="#DejaVuSans-74" transform="translate(590.039062 0)"/>
      <use xlink:href="#DejaVuSans-65" transform="translate(629.248047 0)"/>
     </g>
    </g>
   </g>
  </g>
 </g>
 <defs>
  <clipPath id="p330dcc7023">
   <rect x="84.744" y="145.08" width="662.544" height="252.72"/>
  </clipPath>
 </defs>
</svg>
