<svg xmlns="http://www.w3.org/2000/svg" width="1080" height="620">
<rect width="100%" height="100%" fill="#fff"/>
<style>text{font-family:Arial,"Noto Sans CJK SC",sans-serif;fill:#27343c}.t{font-size:25px;font-weight:700}.s{font-size:14px;fill:#647078}.l{font-size:15px}</style>
<text x="48" y="40" class="t">E111｜SafeConf 在筛哪个模型的错误？</text>
<text x="48" y="68" class="s">Frangieh 正式 scGPT–GEARS；3 个外层 fold 的 Spearman 宏平均。</text>
<line x1="100" y1="490.0" x2="1000" y2="490.0" stroke="#dde4e7"/>
<text x="88" y="495.0" text-anchor="end" class="s">-0.2</text>
<line x1="100" y1="392.5" x2="1000" y2="392.5" stroke="#dde4e7"/>
<text x="88" y="397.5" text-anchor="end" class="s">0.0</text>
<line x1="100" y1="295.0" x2="1000" y2="295.0" stroke="#dde4e7"/>
<text x="88" y="300.0" text-anchor="end" class="s">0.2</text>
<line x1="100" y1="197.5" x2="1000" y2="197.5" stroke="#dde4e7"/>
<text x="88" y="202.5" text-anchor="end" class="s">0.4</text>
<line x1="100" y1="100.0" x2="1000" y2="100.0" stroke="#dde4e7"/>
<text x="88" y="105.0" text-anchor="end" class="s">0.6</text>
<rect x="140.5" y="269.2" width="40" height="123.3" fill="#315f77"/>
<text x="160.5" y="263.2" text-anchor="middle" class="s">0.25</text>
<rect x="192.5" y="325.6" width="40" height="66.9" fill="#759789"/>
<text x="212.5" y="319.6" text-anchor="middle" class="s">0.14</text>
<rect x="244.5" y="320.3" width="40" height="72.2" fill="#ad8158"/>
<text x="264.5" y="314.3" text-anchor="middle" class="s">0.15</text>
<text x="212.5" y="530" text-anchor="middle" class="l">两模型平均误差</text>
<rect x="365.5" y="215.3" width="40" height="177.2" fill="#315f77"/>
<text x="385.5" y="209.3" text-anchor="middle" class="s">0.36</text>
<rect x="417.5" y="278.6" width="40" height="113.9" fill="#759789"/>
<text x="437.5" y="272.6" text-anchor="middle" class="s">0.23</text>
<rect x="469.5" y="274.0" width="40" height="118.5" fill="#ad8158"/>
<text x="489.5" y="268.0" text-anchor="middle" class="s">0.24</text>
<text x="437.5" y="530" text-anchor="middle" class="l">两模型最坏误差</text>
<rect x="590.5" y="199.0" width="40" height="193.5" fill="#315f77"/>
<text x="610.5" y="193.0" text-anchor="middle" class="s">0.40</text>
<rect x="642.5" y="271.6" width="40" height="120.9" fill="#759789"/>
<text x="662.5" y="265.6" text-anchor="middle" class="s">0.25</text>
<rect x="694.5" y="268.8" width="40" height="123.7" fill="#ad8158"/>
<text x="714.5" y="262.8" text-anchor="middle" class="s">0.25</text>
<text x="662.5" y="530" text-anchor="middle" class="l">GEARS 误差</text>
<rect x="815.5" y="357.9" width="40" height="34.6" fill="#315f77"/>
<text x="835.5" y="351.9" text-anchor="middle" class="s">0.07</text>
<rect x="867.5" y="392.5" width="40" height="6.6" fill="#759789"/>
<text x="887.5" y="386.5" text-anchor="middle" class="s">-0.01</text>
<rect x="919.5" y="392.1" width="40" height="1.0" fill="#ad8158"/>
<text x="939.5" y="386.1" text-anchor="middle" class="s">0.00</text>
<text x="887.5" y="530" text-anchor="middle" class="l">scGPT 误差</text>
<rect x="220" y="575" width="18" height="12" fill="#315f77"/><text x="247" y="587" class="s">SafeConf 校准风险</text>
<rect x="465" y="575" width="18" height="12" fill="#759789"/><text x="492" y="587" class="s">模型分歧</text>
<rect x="710" y="575" width="18" height="12" fill="#ad8158"/><text x="737" y="587" class="s">预测幅度</text>
</svg>